<svg width="31" height="31" viewBox="0 0 31 31" fill="none" xmlns="http://www.w3.org/2000/svg">
<path d="M21.361 3.78115C21.3239 3.76248 21.2827 3.75364 21.2413 3.75548C21.1998 3.75732 21.1595 3.76978 21.1243 3.79166C21.089 3.81354 21.06 3.84411 21.0399 3.88044C21.0199 3.91676 21.0095 3.95763 21.0098 3.99912V5.94268C21.0098 6.10918 21.0976 6.26357 21.2369 6.35439C21.9195 6.78409 22.5513 7.28986 23.1199 7.86201C24.1098 8.85498 24.8878 10.0084 25.4297 11.292C25.9901 12.6208 26.2774 14.0488 26.2744 15.4909C26.2744 16.9471 25.9898 18.3608 25.4297 19.6898C24.8885 20.9716 24.1041 22.1364 23.1199 23.1198C22.139 24.1065 20.9749 24.8921 19.6929 25.4327C18.3669 25.9958 16.9532 26.2804 15.5 26.2804C14.0469 26.2804 12.6332 25.9958 11.3072 25.4327C10.0252 24.8921 8.86112 24.1065 7.88022 23.1198C6.89604 22.1364 6.11164 20.9716 5.57036 19.6898C5.00994 18.361 4.7227 16.9331 4.72573 15.4909C4.72573 14.0348 5.0103 12.621 5.57036 11.292C6.11225 10.0084 6.89028 8.85498 7.88022 7.86201C8.45542 7.28682 9.0851 6.78428 9.76323 6.35439C9.90551 6.2666 9.99028 6.10918 9.99028 5.94268V3.99609C9.99028 3.81445 9.79956 3.69941 9.63911 3.77813C5.40385 5.90938 2.48247 10.2718 2.42192 15.3274C2.33716 22.5567 8.24956 28.563 15.4758 28.5781C22.7112 28.5933 28.5782 22.7263 28.5782 15.4879C28.5782 10.3656 25.6416 5.93057 21.361 3.78115ZM14.5313 16.9531H16.4688C16.602 16.9531 16.711 16.8441 16.711 16.7109V2.66406C16.711 2.53086 16.602 2.42188 16.4688 2.42188H14.5313C14.3981 2.42188 14.2891 2.53086 14.2891 2.66406V16.7109C14.2891 16.8441 14.3981 16.9531 14.5313 16.9531Z" fill="black"/>
</svg>
