<svg width="261" height="64" viewBox="0 0 261 64" fill="none" xmlns="http://www.w3.org/2000/svg">
<path d="M31.2595 12.0734V56.9644M42.6068 27.0371V37.0129M53.9541 12.0734V56.9644M65.3014 12.0734V51.9765M8.56487 2.09766V61.9523M76.6487 32.025V37.0129M19.9122 22.0492V46.9886M35.0419 22.0492V46.9886M46.3892 32.025V37.0129M57.7366 7.08554V56.9644M1 27.0371V37.0129M69.0839 27.0371V37.0129M12.3473 17.0613V46.9886M80.4312 22.0492V46.9886M23.6946 12.0734V51.9765M38.8244 22.0492V46.9886M50.1717 17.0613V46.9886M61.519 17.0613V46.9886M4.78244 12.0734V51.9765M72.8663 12.0734V51.9765M16.1297 22.0492V46.9886M84.2136 27.0371V37.0129M27.4771 27.0371V37.0129" stroke="#2B2B2B" stroke-width="1.35906" stroke-linecap="round"/>
<path d="M119.153 12.7892V57.6802M130.5 27.7529V37.7287M141.847 12.7892V57.6802M153.194 12.7892V52.6923M96.4579 2.81348V62.6681M164.542 32.7408V37.7287M107.805 22.765V47.7044M122.935 22.765V47.7044M134.282 32.7408V37.7287M145.63 7.80136V57.6802M88.8931 27.7529V37.7287M156.977 27.7529V37.7287M100.24 17.7771V47.7044M168.324 22.765V47.7044M111.588 12.7892V52.6923M126.717 22.765V47.7044M138.065 17.7771V47.7044M149.412 17.7771V47.7044M92.6755 12.7892V52.6923M160.759 12.7892V52.6923M104.023 22.765V47.7044M172.107 27.7529V37.7287M115.37 27.7529V37.7287" stroke="#6B4EFF" stroke-width="1.35906" stroke-linecap="round"/>
<path d="M207.046 10.9758V55.8667M218.393 25.9394V35.9152M229.741 10.9758V55.8667M241.088 10.9758V50.8789M184.351 1V60.8546M252.435 30.9273V35.9152M195.699 20.9515V45.891M210.829 20.9515V45.891M222.176 30.9273V35.9152M233.523 5.98789V55.8667M176.787 25.9394V35.9152M244.87 25.9394V35.9152M188.134 15.9637V45.891M256.218 20.9515V45.891M199.481 10.9758V50.8789M214.611 20.9515V45.891M225.958 15.9637V45.891M237.306 15.9637V45.891M180.569 10.9758V50.8789M248.653 10.9758V50.8789M191.916 20.9515V45.891M260 25.9394V35.9152M203.264 25.9394V35.9152" stroke="#2B2B2B" stroke-width="1.35906" stroke-linecap="round"/>
</svg>
