<svg width="13" height="14" viewBox="0 0 13 14" fill="none" xmlns="http://www.w3.org/2000/svg">
<path d="M6.05181 2.49132C6.23523 2.11974 6.7651 2.11974 6.94852 2.49132L8.05769 4.73839C8.13046 4.88581 8.27105 4.98804 8.43373 5.01182L10.9149 5.37448C11.3249 5.4344 11.4883 5.93832 11.1915 6.22741L9.39689 7.97534C9.27895 8.09022 9.22512 8.25578 9.25295 8.41805L9.67638 10.8868C9.74644 11.2953 9.31766 11.6068 8.95085 11.4139L6.73289 10.2475C6.5872 10.1709 6.41313 10.1709 6.26744 10.2475L4.04948 11.4139C3.68266 11.6068 3.25389 11.2953 3.32395 10.8868L3.74737 8.41805C3.7752 8.25578 3.72137 8.09022 3.60344 7.97534L1.80884 6.2274C1.51204 5.93832 1.67543 5.4344 2.08539 5.37448L4.5666 5.01182C4.72927 4.98804 4.86987 4.88581 4.94264 4.73839L6.05181 2.49132Z" fill="#FFC960"/>
</svg>
