<svg width="25" height="25" viewBox="0 0 25 25" fill="none" xmlns="http://www.w3.org/2000/svg">
<path d="M12.5 0.6875C10.1637 0.6875 7.87989 1.38029 5.93733 2.67827C3.99478 3.97624 2.48074 5.8211 1.58668 7.97955C0.692618 10.138 0.458691 12.5131 0.914479 14.8045C1.37027 17.0959 2.4953 19.2007 4.14731 20.8527C5.79931 22.5047 7.9041 23.6297 10.1955 24.0855C12.4869 24.5413 14.862 24.3074 17.0205 23.4133C19.1789 22.5193 21.0238 21.0052 22.3217 19.0627C23.6197 17.1201 24.3125 14.8363 24.3125 12.5C24.3125 9.36713 23.068 6.36258 20.8527 4.1473C18.6374 1.93203 15.6329 0.6875 12.5 0.6875ZM18.7834 13.2552L8.65841 18.3177C8.52974 18.382 8.38677 18.4123 8.24308 18.4058C8.09939 18.3993 7.95975 18.3561 7.83742 18.2805C7.71509 18.2048 7.61413 18.0991 7.54414 17.9735C7.47415 17.8478 7.43744 17.7063 7.43751 17.5625V7.4375C7.43758 7.29373 7.47439 7.15237 7.54445 7.02682C7.6145 6.90128 7.71547 6.79571 7.83778 6.72015C7.96008 6.64458 8.09967 6.60152 8.24329 6.59506C8.38691 6.58859 8.52981 6.61892 8.65841 6.68319L18.7834 11.7457C18.9234 11.8158 19.0411 11.9235 19.1233 12.0568C19.2055 12.19 19.2491 12.3434 19.2491 12.5C19.2491 12.6566 19.2055 12.81 19.1233 12.9432C19.0411 13.0765 18.9234 13.1842 18.7834 13.2543V13.2552Z" fill="black"/>
</svg>
